# AST/ASF file generated using VICON BodyLanguage
# -----------------------------------------------
:version 1.10
:name VICON
:units
  mass 1.0
  length 0.45
  angle deg
:documentation
   .ast/.asf automatically generated from VICON data using
   VICON BodyBuilder and BodyLanguage model FoxedUp or BRILLIANT.MOD
:root
   order TX TY TZ RX RY RZ
   axis XYZ
   position 0 0 0  
   orientation 0 0 0 
:bonedata
  begin
     id 1 
     name lhipjoint
     direction 0.612567 -0.751349 0.245431 
     length 2.42285 
     axis 0 0 0  XYZ
  end
  begin
     id 2 
     name lfemur
     direction 0.34202 -0.939693 0  
     length 7.11304  
     axis 0 0 20  XYZ
    dof rx ry rz
    limits (-160.0 20.0)
           (-70.0 70.0)
           (-60.0 70.0)
  end
  begin
     id 3 
     name ltibia
     direction 0.34202 -0.939693 0   
     length 7.84529   
     axis 0 0 20   XYZ
    dof rx
    limits (-10.0 170.0)
  end
  begin
     id 4 
     name lfoot
     direction 0.0779239 -0.214094 0.9737   
     length 1.97176   
     axis -90 7.62852e-016 20   XYZ
    dof rx rz
    limits (-45.0 90.0)
           (-70.0 20.0)
  end
  begin
     id 5 
     name ltoes
     direction 1.53565e-011 -4.21709e-011 1   
     length 0.993197   
     axis -90 7.62852e-016 20   XYZ
    dof rx
    limits (-90.0 20.0)
  end
  begin
     id 6 
     name rhipjoint
     direction -0.665722 -0.709315 0.231701   
     length 2.56642  
     axis 0 0 0  XYZ 
  end
  begin
     id 7 
     name rfemur
     direction -0.34202 -0.939693 0   
     length 7.32108   
     axis 0 0 -20   XYZ
    dof rx ry rz
    limits (-160.0 20.0)
           (-70.0 70.0)
           (-70.0 60.0)
  end
  begin
     id 8 
     name rtibia
     direction -0.34202 -0.939693 0   
     length 7.81254   
     axis 0 0 -20   XYZ
    dof rx
    limits (-10.0 170.0)
 end
 begin
     id 9 
     name rfoot
     direction -0.0832806 -0.228812 0.969902   
     length 2.08278  
     axis -90 -7.62852e-016 -20   XYZ
    dof rx rz
    limits (-45.0 90.0)
           (-20.0 70.0)
  end
  begin
     id 10 
     name rtoes
     direction -1.53589e-011 -4.22086e-011 1   
     length 1.04609   
     axis -90 -7.62852e-016 -20   XYZ
    dof rx
    limits (-90.0 20.0)
  end
  begin
     id 11 
     name lowerback
     direction -0.00506013 0.988403 -0.151766   
     length 2.01978   
     axis 0 0 0   XYZ
    dof rx ry rz
    limits (-20.0 45.0)
           (-30.0 30.0)
           (-30.0 30.0)
  end
  begin
     id 12 
     name upperback
     direction -0.00836389 0.99968 0.0238859   
     length 2.01276   
     axis 0 0 0   XYZ
    dof rx ry rz
    limits (-20.0 45.0)
           (-30.0 30.0)
           (-30.0 30.0)
  end
  begin
     id 13 
     name thorax
     direction -0.00684136 0.995386 0.0957043   
     length 2.07303   
     axis 0 0 0   XYZ
    dof rx ry rz
    limits (-20.0 45.0)
           (-30.0 30.0)
           (-30.0 30.0)
  end
  begin
     id 14 
     name lowerneck
     direction -0.0161045 0.999661 0.0204485   
     length 1.91243   
     axis 0 0 0   XYZ
    dof rx ry rz
    limits (-20.0 45.0)
           (-30.0 30.0)
           (-30.0 30.0)
  end
  begin
     id 15 
     name upperneck
     direction 0.0553583 0.990946 -0.122319   
     length 1.91574   
     axis 0 0 0   XYZ
    dof rx ry rz
    limits (-20.0 45.0)
           (-30.0 30.0)
           (-30.0 30.0)
  end
  begin
     id 16
     name head
     direction 0.0180273 0.998839 -0.0446756  
     length 1.92693  
     axis 0 0 0   XYZ
    dof rx ry rz
    limits (-20.0 45.0)
           (-30.0 30.0)
           (-30.0 30.0)
  end
  begin
     id 17 
     name lclavicle
     direction 0.945646 0.319323 -0.0615358  
     length 4.0076  
     axis 0 0 0   XYZ
    dof ry rz
    limits (-20.0 10.0)
           (0.0 20.0)
  end
  begin
     id 18 
     name lhumerus
     direction 1 -4.48967e-011 -2.79996e-027   
     length 5.64147   
     axis 180 -30 -90   XYZ
    dof rx ry rz
    limits (-60.0 90.0)
           (-90.0 90.0)
           (-90.0 90.0)
  end
  begin
     id 19
     name lradius
     direction 1 -4.48976e-011 -9.5122e-027   
     length 2.86444   
     axis 180 -30 -90   XYZ
    dof rx
    limits (-10.0 170.0)
  end
  begin
     id 20
     name lwrist
     direction 1 -4.48983e-011 -1.24047e-026   
     length 1.43222   
     axis 9.05591e-015 90 90   XYZ
    dof ry
    limits (-180.0 0.0)
 end
  begin
     id 21 
     name lhand
     direction 1 -4.4892e-011 -2.48094e-026   
     length 0.722123   
     axis 1.58305e-014 90 90   XYZ
    dof rx rz
    limits (-90.0 90.0)
           (-45.0 45.0)
  end
  begin
     id 22 
     name lfingers
     direction 1 -4.48895e-011 -4.96187e-026   
     length 0.582194   
     axis 3.1661e-014 90 90   XYZ
    dof rx
    limits (0.0 90.0)
  end
  begin
     id 23
     name lthumb
     direction 0.707107 -6.34961e-011 0.707107   
     length 0.835918   
     axis -90 45 2.85299e-015   XYZ
    dof rx rz
    limits (-45.0 45.0)
           (-45.0 45.0)
  end
  begin
     id 24 
     name rclavicle
     direction -0.932635 0.324218 -0.15835   
     length 3.65819  
     axis 0 0 0   XYZ 
    dof ry rz
    limits (-10.0 20.0)
           (-20.0 0.0)
  end
  begin
     id 25 
     name rhumerus
     direction -1 -4.48965e-011 -4.02296e-027  
     length 5.44729   
     axis 180 30 90   XYZ
    dof rx ry rz
    limits (-90.0 60.0)
           (-90.0 90.0)
           (-90.0 90.0)
  end
  begin
     id 26 
     name rradius
     direction -1 -4.48957e-011 -8.81087e-027   
     length 3.08821   
     axis 180 30 90   XYZ
    dof rx
    limits (-10.0 170.0)
  end
  begin
     id 27 
     name rwrist
     direction -1 -4.49015e-011 -1.24047e-026   
     length 1.5441   
     axis 9.05591e-015 -90 -90   XYZ
    dof ry
    limits (-180.0 0.0)
  end
  begin
     id 28
     name rhand
     direction -1 -4.4891e-011 -2.48094e-026   
     length 0.821049   
     axis 1.58305e-014 -90 -90   XYZ
    dof rx rz
    limits (-90.0 90.0)
           (-45.0 45.0)
  end
  begin
     id 29
     name rfingers
     direction -1 -4.48985e-011 -4.96187e-026   
     length 0.661951   
     axis 3.1661e-014 -90 -90   XYZ
    dof rx
    limits (0.0 90.0)
  end
  begin
     id 30
     name rthumb
     direction -0.707107 -6.34906e-011 0.707107   
     length 0.950433   
     axis -90 -45 -2.85299e-015   XYZ
    dof rx rz
    limits (-45.0 45.0)
           (-45.0 45.0)
  end
:hierarchy
  begin
    root lhipjoint rhipjoint lowerback
    lhipjoint lfemur
    lfemur ltibia
    ltibia lfoot
    lfoot ltoes
    rhipjoint rfemur
    rfemur rtibia
    rtibia rfoot
    rfoot rtoes
    lowerback upperback
    upperback thorax
    thorax lowerneck lclavicle rclavicle
    lowerneck upperneck
    upperneck head
    lclavicle lhumerus
    lhumerus lradius
    lradius lwrist
    lwrist lhand lthumb
    lhand lfingers
    rclavicle rhumerus
    rhumerus rradius
    rradius rwrist
    rwrist rhand rthumb
    rhand rfingers
  end

#!OML:ASF F:\VICON\USERDATA\INSTALL\rory3\rory3.ASF
:FULLY-SPECIFIED
:DEGREES
718
root 3.21228 17.7112 0.165019 346.21 89.3156 348.665
lowerback 5.61392 0.340719 2.98472
upperback 0.356742 0.62091 -1.08637
thorax -2.73716 0.271337 -2.84677
lowerneck -3.96196 -4.92382 -5.11114
upperneck 7.14991 -6.82365 8.06642
head 3.22613 -3.19678 2.98141
rclavicle 5.61256e-015 4.57205e-015
rhumerus 33.8636 21.481 -63.9242
rradius 71.0116
rwrist 16.2949
rhand 2.05603 3.18735
rfingers 7.12502
rthumb 27.5582 -24.8153
lclavicle 5.61256e-015 4.57205e-015
lhumerus 27.3671 -49.6206 62.114
lradius 56.8001
lwrist 34.1946
lhand -23.0736 14.6343
lfingers 7.12502
lthumb 3.37202 44.5873
rfemur 2.18552 0.815179 18.9155
rtibia 15.0212
rfoot -17.5976 -7.61046
rtoes -11.0673
lfemur 2.90824 0.631377 -16.4019
ltibia 9.17669
lfoot -9.71532 0.572825
ltoes -5.71307
719
root 3.21344 17.713 0.166545 351.405 89.3399 353.862
lowerback 5.55213 0.347768 2.90047
upperback 0.387759 0.622503 -1.11884
thorax -2.67089 0.274735 -2.83197
lowerneck -4.01298 -4.92181 -5.06569
upperneck 7.17854 -6.82522 8.08689
head 3.24247 -3.19363 2.97875
rclavicle 3.63714e-015 -1.59028e-015
rhumerus 33.5517 21.8245 -63.951
rradius 70.7639
rwrist 16.2527
rhand 1.83667 3.11042
rfingers 7.12502
rthumb 27.3484 -24.9255
lclavicle 3.63714e-015 -1.59028e-015
lhumerus 27.7979 -49.6899 61.6803
lradius 57.0127
lwrist 34.4726
lhand -23.1711 14.4765
lfingers 7.12502
lthumb 3.27782 44.4311
rfemur 2.15592 0.871502 18.8496
rtibia 15.0813
rfoot -17.6819 -7.56344
rtoes -9.85788
lfemur 2.95124 0.624112 -16.4665
ltibia 9.09915
lfoot -9.71536 0.5899
ltoes -5.43251
720
root 3.21366 17.7098 0.167176 356.881 89.3539 359.349
lowerback 5.51131 0.340879 2.83182
upperback 0.405373 0.607188 -1.15232
thorax -2.63124 0.268779 -2.8261
lowerneck -4.02886 -4.90561 -5.01637
upperneck 7.20873 -6.80685 8.07817
head 3.25095 -3.18245 2.9685
rclavicle -3.75206e-015 5.76476e-015
rhumerus 33.1997 22.2244 -64.0219
rradius 70.4589
rwrist 16.1588
rhand 2.02712 3.08515
rfingers 7.12502
rthumb 27.5305 -24.9219
lclavicle -3.75206e-015 5.76476e-015
lhumerus 28.2588 -49.7448 61.1571
lradius 57.2525
lwrist 34.6941
lhand -23.3218 14.5509
lfingers 7.12502
lthumb 3.13232 44.5077
rfemur 2.15623 0.864165 18.7918
rtibia 15.1269
rfoot -17.7114 -7.5567
rtoes -9.86237
lfemur 2.98937 0.620891 -16.5345
ltibia 9.03595
lfoot -9.65434 0.593945
ltoes -5.31288
721
root 3.21409 17.7082 0.168569 360.15 89.3706 362.583
lowerback 5.47771 0.323903 2.76458
upperback 0.36396 0.579178 -1.15782
thorax -2.65767 0.254364 -2.7917
lowerneck -3.99581 -4.88275 -5.04914
upperneck 7.26473 -6.77946 8.10378
head 3.26234 -3.16828 2.98337
rclavicle 1.49679e-014 -1.13307e-014
rhumerus 32.7488 22.7058 -64.1439
rradius 70.1061
rwrist 15.9914
rhand 2.56571 3.26731
rfingers 7.12502
rthumb 28.0455 -24.6566
lclavicle 1.49679e-014 -1.13307e-014
lhumerus 28.6762 -49.8022 60.6279
lradius 57.5109
lwrist 34.8239
lhand -23.5996 14.8032
lfingers 7.12502
lthumb 2.86405 44.7637
rfemur 2.12817 0.832531 18.7674
rtibia 15.1366
rfoot -17.7018 -7.6172
rtoes -10.4008
lfemur 2.93338 0.611742 -16.5673
ltibia 9.0572
lfoot -9.65104 0.574355
ltoes -5.23178
722
root 3.21472 17.7089 0.169934 356.955 89.3706 359.388
lowerback 5.47642 0.25616 2.72537
upperback 0.346679 0.488466 -1.07064
thorax -2.68205 0.209214 -2.67265
lowerneck -4.01387 -4.8036 -5.29197
upperneck 7.33977 -6.66561 8.16281
head 3.28995 -3.11515 3.04541
rclavicle 5.35166e-015 7.95139e-016
rhumerus 32.38 23.3936 -64.1962
rradius 69.7641
rwrist 15.8884
rhand 2.42702 3.12904
rfingers 7.12502
rthumb 27.9129 -24.8165
lclavicle 5.35166e-015 7.95139e-016
lhumerus 28.9149 -49.5842 60.3275
lradius 57.7918
lwrist 34.8741
lhand -23.8089 15.0381
lfingers 7.12502
lthumb 2.66191 45.0013
rfemur 2.1416 0.851722 18.82
rtibia 15.1152
rfoot -17.702 -7.69426
rtoes -10.7626
lfemur 2.89067 0.615147 -16.521
ltibia 9.1405
lfoot -9.67263 0.547562
ltoes -5.00229
723
root 3.21492 17.7085 0.170896 350.735 89.3597 353.186
lowerback 5.46959 0.214954 2.75553
upperback 0.366934 0.436706 -1.01214
thorax -2.66097 0.183969 -2.62502
lowerneck -4.0582 -4.75825 -5.40402
upperneck 7.36036 -6.60016 8.20052
head 3.30381 -3.08338 3.07721
rclavicle 2.3792e-015 3.18055e-015
rhumerus 31.9697 24.0053 -64.3135
rradius 69.3481
rwrist 15.8402
rhand 2.09674 2.73023
rfingers 7.12502
rthumb 27.5971 -25.2662
lclavicle 2.3792e-015 3.18055e-015
lhumerus 29.369 -49.3577 59.8419
lradius 58.1181
lwrist 34.9924
lhand -23.4704 15.1175
lfingers 7.12502
lthumb 2.98879 45.0763
rfemur 2.17278 0.857485 18.9031
rtibia 15.0893
rfoot -17.692 -7.70984
rtoes -10.6834
lfemur 2.88743 0.621642 -16.4368
ltibia 9.19163
lfoot -9.67135 0.502365
ltoes -4.50853
724
root 3.21494 17.7086 0.170608 344.95 89.356 347.391
lowerback 5.51968 0.287067 2.87808
upperback 0.331354 0.5393 -1.10787
thorax -2.71707 0.231706 -2.80171
lowerneck -4.05506 -4.83757 -5.09883
upperneck 7.34908 -6.7235 8.17624
head 3.29773 -3.13599 3.01426
rclavicle -6.18096e-016 -3.97569e-016
rhumerus 31.1665 24.2522 -64.6691
rradius 68.9495
rwrist 15.7556
rhand 2.20181 2.59677
rfingers 7.12502
rthumb 27.6976 -25.3836
lclavicle -6.18096e-016 -3.97569e-016
lhumerus 30.309 -49.5135 58.8697
lradius 58.4843
lwrist 35.0965
lhand -22.9764 15.3338
lfingers 7.12502
lthumb 3.46587 45.2854
rfemur 2.15773 0.875147 18.978
rtibia 15.0949
rfoot -17.7019 -7.72169
rtoes -10.6923
lfemur 2.88467 0.616838 -16.3684
ltibia 9.17713
lfoot -9.69182 0.524674
ltoes -4.93775
725
root 3.21575 17.7086 0.171036 347.863 89.3702 350.304
lowerback 5.59593 0.337797 2.87695
upperback 0.282413 0.606352 -1.21002
thorax -2.80464 0.262385 -2.91333
lowerneck -3.98915 -4.8838 -4.86773
upperneck 7.28833 -6.79842 8.17961
head 3.26618 -3.16815 2.97621
rclavicle 2.98488e-015 -5.36719e-015
rhumerus 30.2976 24.595 -65.0592
rradius 68.5335
rwrist 15.6229
rhand 2.35788 2.4557
rfingers 7.12502
rthumb 27.8468 -25.5005
lclavicle 2.98488e-015 -5.36719e-015
lhumerus 31.1048 -49.488 58.0257
lradius 58.9034
lwrist 35.0627
lhand -23.0508 15.6453
lfingers 7.12502
lthumb 3.39404 45.598
rfemur 2.16129 0.8624 18.9384
rtibia 15.098
rfoot -17.7391 -7.71213
rtoes -10.6724
lfemur 2.87865 0.615456 -16.4058
ltibia 9.19243
lfoot -9.70955 0.530502
ltoes -5.67263
726
root 3.21536 17.7084 0.171369 357.168 89.409 359.609
lowerback 5.62541 0.324894 2.7742
upperback 0.256705 0.582267 -1.25535
thorax -2.84996 0.250335 -2.90105
lowerneck -3.91135 -4.86047 -4.85994
upperneck 7.2291 -6.7673 8.19644
head 3.23375 -3.15467 2.98406
rclavicle 1.06226e-015 4.57205e-015
rhumerus 29.5192 25.1597 -65.373
rradius 68.0069
rwrist 15.4625
rhand 2.28215 2.38708
rfingers 7.12502
rthumb 27.7744 -25.5809
lclavicle 1.06226e-015 4.57205e-015
lhumerus 31.6707 -49.0927 57.4924
lradius 59.4018
lwrist 35.1255
lhand -23.1382 15.8539
lfingers 7.12502
lthumb 3.3096 45.808
rfemur 2.16075 0.802058 18.8171
rtibia 15.1147
rfoot -17.7437 -7.7114
rtoes -10.7478
lfemur 2.86627 0.595117 -16.5151
ltibia 9.20234
lfoot -9.69299 0.506571
ltoes -5.6526
727
root 3.21417 17.7072 0.171798 357.638 89.4479 360.085
lowerback 5.60323 0.309251 2.7887
upperback 0.277414 0.561136 -1.28335
thorax -2.81723 0.240429 -2.93613
lowerneck -3.87411 -4.84651 -4.90867
upperneck 6.92297 -6.71458 8.00625
head 3.47433 -3.16123 3.26723
rclavicle 1.86361e-015 -6.16232e-015
rhumerus 28.7513 25.6822 -65.8211
rradius 67.3823
rwrist 15.3439
rhand 2.0976 2.71424
rfingers 7.12502
rthumb 27.5979 -25.2821
lclavicle 1.86361e-015 -6.16232e-015
lhumerus 32.294 -48.4263 57.03
lradius 59.914
lwrist 35.0945
lhand -22.3971 15.7784
lfingers 7.12502
lthumb 4.0253 45.7201
rfemur 2.15729 0.74318 18.8075
rtibia 15.1473
rfoot -17.7984 -7.65824
rtoes -10.5631
lfemur 2.88011 0.560775 -16.5183
ltibia 9.17832
lfoot -9.69401 0.523824
ltoes -5.538
728
root 3.21272 17.706 0.173909 353.729 89.4475 356.175
lowerback 5.57269 0.320669 2.82297
upperback 0.304009 0.577605 -1.29165
thorax -2.77106 0.24943 -2.96475
lowerneck -3.81464 -4.84415 -4.92961
upperneck 6.80084 -6.70988 8.07066
head 3.42456 -3.16039 3.29462
rclavicle -6.74625e-015 7.15625e-015
rhumerus 27.9439 26.1922 -66.3309
rradius 66.7868
rwrist 15.1226
rhand 2.15091 2.67913
rfingers 7.12502
rthumb 27.6489 -25.309
lclavicle -6.74625e-015 7.15625e-015
lhumerus 32.8636 -47.5679 56.7467
lradius 60.439
lwrist 34.6711
lhand -21.4404 15.4905
lfingers 7.12502
lthumb 4.94912 45.4127
rfemur 2.13653 0.82453 18.8655
rtibia 15.1854
rfoot -17.8801 -7.65356
rtoes -10.1942
lfemur 2.87865 0.562656 -16.4708
ltibia 9.15609
lfoot -9.71493 0.537112
ltoes -5.29522
729
root 3.2114 17.7066 0.175482 357.432 89.4659 359.853
lowerback 5.54385 0.322439 2.75873
upperback 0.30828 0.575035 -1.2996
thorax -2.75118 0.249349 -2.93615
lowerneck -3.76879 -4.83651 -4.99026
upperneck 6.70154 -6.69656 8.13538
head 3.38673 -3.15587 3.33002
rclavicle 3.09359e-015 -1.23246e-014
rhumerus 27.2364 26.7964 -66.6428
rradius 66.0949
rwrist 15.0568
rhand 2.02078 2.25812
rfingers 7.12502
rthumb 27.5245 -25.7499
lclavicle 3.09359e-015 -1.23246e-014
lhumerus 33.4345 -46.7555 56.4218
lradius 61.1487
lwrist 34.4852
lhand -21.5502 15.1914
lfingers 7.12502
lthumb 4.8431 45.1161
rfemur 2.10193 0.82617 18.8336
rtibia 15.1958
rfoot -17.8865 -7.676
rtoes -10.3554
lfemur 2.83037 0.553102 -16.5
ltibia 9.17711
lfoot -9.71367 0.515579
ltoes -5.13567
730
root 3.21065 17.7065 0.176137 361.652 89.4859 364.081
lowerback 5.55833 0.328596 2.73719
upperback 0.325819 0.58145 -1.34071
thorax -2.74053 0.253206 -2.96711
lowerneck -3.8138 -4.84834 -4.98605
upperneck 6.70011 -6.71287 8.15374
head 3.39692 -3.16227 3.33407
rclavicle -4.69939e-015 5.36719e-015
rhumerus 26.5819 27.3869 -66.8678
rradius 65.2892
rwrist 15.3451
rhand 1.8824 2.21683
rfingers 7.12502
rthumb 27.3921 -25.8122
lclavicle -4.69939e-015 5.36719e-015
lhumerus 34.1005 -45.9625 55.9879
lradius 61.9955
lwrist 34.5112
lhand -21.9652 14.7767
lfingers 7.12502
lthumb 4.44233 44.7101
rfemur 2.0911 0.741291 18.7881
rtibia 15.2343
rfoot -17.8398 -7.65768
rtoes -10.5657
lfemur 2.85631 0.537504 -16.5336
ltibia 9.12931
lfoot -9.64193 0.507182
ltoes -4.9106
731
root 3.20989 17.7065 0.179306 364.983 89.4867 367.405
lowerback 5.56354 0.337905 2.68389
upperback 0.338245 0.590092 -1.37131
thorax -2.73021 0.258506 -2.96936
lowerneck -3.85823 -4.86248 -4.9454
upperneck 6.71776 -6.73284 8.13344
head 3.41001 -3.17053 3.31742
rclavicle -5.89831e-015 -5.56597e-015
rhumerus 25.8531 27.9768 -67.1549
rradius 64.5057
rwrist 15.627
rhand 2.15527 2.42449
rfingers 7.12502
rthumb 27.6531 -25.563
lclavicle -5.89831e-015 -5.56597e-015
lhumerus 34.7525 -45.0119 55.698
lradius 62.8569
lwrist 34.1901
lhand -22.2524 14.5807
lfingers 7.12502
lthumb 4.16502 44.5197
rfemur 2.06062 0.752691 18.7723
rtibia 15.2871
rfoot -17.878 -7.62135
rtoes -10.3835
lfemur 2.90029 0.539826 -16.5551
ltibia 9.02781
lfoot -9.55919 0.504665
ltoes -4.90374
